<svg xmlns="http://www.w3.org/2000/svg" width="96" height="96" viewBox="0 0 96 96" role="img" aria-labelledby="title desc">
  <title id="title">Google UX Design Certification</title>
  <desc id="desc">A simple badge showing G and UX for the Google UX Design Certificate.</desc>
  <defs>
    <linearGradient id="bg" x1="0" y1="0" x2="1" y2="1">
      <stop offset="0%" stop-color="#FFFFFF" />
      <stop offset="100%" stop-color="#F3F4F6" />
    </linearGradient>
  </defs>
  <rect x="2" y="2" width="92" height="92" rx="20" fill="url(#bg)" stroke="#D1D5DB" stroke-width="2" />
  <path d="M41 26a22 22 0 1 0 0 44c10.5 0 19.2-7.3 21.5-17H41v-8h30.1c.4 2.1.7 4.2.7 6.3 0 17.6-12.1 30.2-30.8 30.2-17.4 0-31.5-14.1-31.5-31.5S23.6 18.5 41 18.5c8.5 0 15.6 3.1 21.2 8.2l-6 6C51.8 28.4 46.8 26 41 26z" fill="#4285F4" />
  <text x="62" y="70" text-anchor="middle" font-family="Arial, sans-serif" font-size="24" font-weight="700" fill="#111827">UX</text>
</svg>
